<?xml version="1.0" encoding="UTF-8"?>
<svg id="Calque_2" data-name="Calque 2" xmlns="http://www.w3.org/2000/svg" viewBox="0 0 994 994">
  <defs>
    <style>
      .cls-1 {
        fill: #333;
        stroke: #f2f2f2;
        stroke-miterlimit: 10;
        stroke-width: .25px;
      }
    </style>
  </defs>
  <path class="cls-1" d="M401,641l19-23s8.19-3.75-6-17c-6.04-5.63-8.99-8.84-10.38-10.66s-3.3-3.15-5.48-3.8l-5.14-1.54s1-9-5-10c-6-1-8,8-14,7-3-.5-24-14-24-14,8.51-20.24-6.13-150.97-15-161-13.07-14.77-6-49,3-51,0,0-18,8-26,20s-6-4-5,40-5,29-5,29c0,0-18-80,4-87s14-14,14-14c0,0,0,7-8,3s-31,20-28,43-14,31-14,31c6.04-36.35-10.31,86.77-5,81,19.92-21.64-12-141,16-181,0,0-43,61-49,89s-6,70,6,82c0,0,15.5-99.78,4-135-16-49-7-2-21-83,0,0-36,239-42,305,0,0,13,60,44,80s32,50,53,79,84,28,95,4,35-54,35-54l11,3s17,40,32,47,96,23,107,1,61-13,61-13c0,0,96-56,110-111s18-102,18-120,69-130,66-146-61,56-72,42,46-59,38-74,4-130,41-147-37,0-37,0c0,0-12-33,31-54s-100-67-100-67c0,0-31-40-102-15s-176-8-158,47,48,150,58,177,3.85,120.31-1.24,134.94c-5.09,14.63,11.24,71.06,16.24,83.06s-7.31,3.89-9.65,10.44-6.35-4.44-12.35,10.56,6,11,4,20,28,63,28,63l19,36s-9,13-18,18-33-11.33-42,1.83-19,18.17-27,18.17,9-49,9-59-4-55-4-63-9-84-9-84l-1-40s-2-8-7,1-2,14-2,14v4l-5-2s-10-14-9-22,1-16,1-16l-2-4-1-4-7-10h-3s-5,27,1,40,12,35,12,35l6,12s0,49-1,58-7,50-3,66,0,23,0,23c0,0-11,43-13,47s-2,4-2,4c0,0-1,6-26-13Z"/>
</svg>