<?xml version="1.0" encoding="UTF-8"?>
<svg id="Calque_1" data-name="Calque 1" xmlns="http://www.w3.org/2000/svg" viewBox="0 0 34.667969 50.549635">
  <defs>
    <style>
      .cls-1 {
        fill: #000;
        stroke-width: 0px;
      }
    </style>
  </defs>
  <path class="cls-1" d="M0,3.772292v-.78125c0-.649902.244141-1.106445.732422-1.367188.488281-.259277,1.057617-.390625,1.708984-.390625.520508,0,1.008789.048828,1.464844.146484.45459.097656.813477.473145,1.074219,1.123047.195312.976562.390625,2.328613.585938,4.052734.195312,1.725586.422852,3.629883.683594,5.712891.259277,2.084473.537109,4.281738.830078,6.591797.292969,2.311523.585938,4.492188.878906,6.542969s.601074,3.891113.927734,5.517578c.325195,1.62793.683594,2.865723,1.074219,3.710938-.195312-6.25,0-11.669922.585938-16.259766s1.708984-8.333008,3.369141-11.230469c1.660156-2.895996,3.938477-4.915039,6.835938-6.054688C23.648438-.051439,27.27832-.29558,31.640625.354323c2.017578,0,3.027344,1.074219,3.027344,3.222656,0,.84668-.553711,1.416016-1.660156,1.708984-1.107422.292969-2.34375.488281-3.710938.585938s-2.702148.211914-4.003906.341797c-1.302734.131348-2.246094.456055-2.832031.976562-2.34375,1.303223-3.988281,3.320312-4.931641,6.054688-.944336,2.734375-1.611328,5.957031-2.001953,9.667969s-.667969,7.763672-.830078,12.158203c-.163086,4.394531-.602539,8.90332-1.318359,13.525391,0,.651367-.260742,1.139648-.78125,1.464844-.521973.32666-1.156738.488281-1.904297.488281-.749023,0-1.464844-.161621-2.148438-.488281-.683594-.325195-1.220703-.813477-1.611328-1.464844L0,3.772292Z"/>
</svg>