<?xml version="1.0" encoding="UTF-8"?>
<svg id="Calque_1" data-name="Calque 1" xmlns="http://www.w3.org/2000/svg" viewBox="0 0 1917.66 151.5">
  <defs>
    <style>
      .cls-1 {
        fill: #fff;
        stroke-width: 0px;
      }
    </style>
  </defs>
  <polyline class="cls-1" points="0 79.21 90.42 79.21 90.42 0 92.94 79.21 103.42 79.21 103.42 0 106.16 79.21 116.64 79.21 116.64 0 119.83 79.21 129.85 79.21 129.85 0 132.13 79.21 164.49 79.21 164.49 45.12 164.49 113.02 166.11 79.21 176.88 79.21 176.88 45.12 176.88 113.02 178.42 79.21 190.72 79.21 190.72 44.66 190.72 113.02 192.26 79.21 215.33 79.21 215.33 51.72 215.33 99.58 216.87 79.21 232.25 79.21 253.81 0 212.25 151.5 233.79 79.21 246.09 79.21 266.68 0 227.04 151.5 247.63 79.21 259.93 79.21 279.5 0 241.73 151.5 261.47 79.21 275.31 79.21 294.37 0 258.48 151.5 276.85 79.21 290.7 79.21 310.69 .77 271.81 151.5 292.23 79.21 324.53 79.21 324.53 0 326.07 79.21 339.91 79.21 339.91 0 341.45 79.21 355.29 79.21 355.29 50.07 355.29 111.25 356.83 79.21 370.68 79.21 370.68 0 372.21 79.21 386.06 79.21 386.06 0 387.59 79.21 401.44 79.21 400.84 0 402.97 79.21 416.82 79.21 416.82 0 418.36 79.21 441.43 79.21 441.43 0 442.96 79.21 597.88 75.75 597.88 151.5 598.91 75.75 612.92 75.75 612.92 151.5 614.06 75.75 641.63 75.75 641.63 37.6 641.63 112.11 642.83 75.75 656.84 75.75 656.84 37.6 656.84 111.94 658.21 75.75 672.05 75.75 672.05 37.6 672.14 113.05 673.25 75.75 687.26 75.75 687.26 37.94 687.26 113.3 688.63 75.75 843.29 75.75 843.29 0 844.66 75.75 863.34 75.75 862.86 40.76 863.34 105.96 864.71 75.75 926.69 75.75 961.55 0 892.28 151.5 928.74 75.75 964.29 75.75 992.65 0 936.26 151.5 966.34 75.75 1005.64 75.75 1008.03 0 1006.44 75.75 1024.44 75.75 1024.44 44.21 1024.36 113.05 1025.12 75.75 1053.61 75.75 1053.61 44.21 1053.61 113.02 1055.89 75.75 1083.23 75.75 1083.23 44.66 1083.23 114.84 1084.82 75.75 1112.4 75.75 1112.03 43.84 1112.4 115.07 1113.99 75.75 1141.79 75.75 1141.79 43.29 1141.79 115.98 1143.61 75.75 1171.41 75.75 1171.41 0 1172.78 75.75 1188.05 75.75 1188.05 0 1188.93 76.13 1215.85 75.75 1215.85 0 1217.44 75.75 1435.79 75.75 1435.79 151.5 1437.33 75.75 1452.71 75.75 1452.71 151.5 1454.42 75.75 1468.77 75.75 1468.77 151.5 1470.48 75.75 1484.49 75.75 1484.49 151.5 1486.55 75.75 1532 75.75 1532 42.38 1532 103.22 1533.71 75.75 1548.07 75.75 1548.07 42.38 1548.07 103.22 1550.12 75.75 1594.55 75.75 1594.55 151.5 1596.26 75.75 1613.01 75.75 1613.01 151.5 1614.72 75.75 1629.07 75.75 1629.07 151.5 1630.78 75.75 1645.14 75.75 1645.14 151.5 1647.19 75.75 1661.2 75.75 1661.2 151.5 1662.91 75.75 1706.66 75.75 1706.66 40.67 1706.66 109.03 1708.37 75.75 1741.87 75.75 1741.87 151.5 1743.57 75.75 1758.96 75.75 1758.96 151.5 1760.66 75.75 1776.04 75.75 1776.04 151.5 1777.75 75.75 1793.13 75.75 1793.13 151.5 1794.84 75.75 1917.66 75.75"/>
</svg>